#Comment line ignore any data following # character 
#Hierarchical Translation and Rotation (.htr) file 
[Header]	
#Header keywords are followed by a single value 
FileType HTR		#Single word string
DataType HTRS		#Translation followed by rotation and scale data
FileVersion 1		#integer
NumSegments 84		#integer
NumFrames 2		#integer
DataFrameRate 30		#integer, data frame rate in this file
EulerRotationOrder ZYX
CalibrationUnits mm
RotationUnits Degrees
GlobalAxisofGravity Y
BoneLengthAxis Y
ScaleFactor 1.00
[SegmentNames&Hierarchy]
#CHILD	PARENT
MASTER GLOBAL
root MASTER
chest root
L_mid_tent01 root
R_mid_tent01 root
spine01 root
Bip01_Neck chest
L_humerus chest
R_humerus chest
weapon_bone chest
Bip01_Head Bip01_Neck
eye_left_bone Bip01_Head
eye_right_bone Bip01_Head
L_forearm L_humerus
L_front_hand L_forearm
L_weapon_bone L_forearm
L_front_hand01_01 L_front_hand
L_front_hand02_01 L_front_hand
L_front_hand03_01 L_front_hand
L_front_hand01_02 L_front_hand01_01
L_front_hand02_02 L_front_hand02_01
L_front_hand03_02 L_front_hand03_01
R_forearm R_humerus
R_front_hand R_forearm
R_weapon_bone R_forearm
R_front_hand01_01 R_front_hand
R_front_hand02_01 R_front_hand
R_front_hand03_01 R_front_hand
R_front_hand01_02 R_front_hand01_01
R_front_hand02_02 R_front_hand02_01
R_front_hand03_02 R_front_hand03_01
null_rope01_connect L_mid_tent01
Rope1_Seg01 null_rope01_connect
Rope1_Seg02 Rope1_Seg01
Rope1_Seg03 Rope1_Seg02
Rope1_Seg04 Rope1_Seg03
Rope1_Seg05 Rope1_Seg04
Rope1_Seg06 Rope1_Seg05
Rope1_Seg07 Rope1_Seg06
Rope1_Seg09 Rope1_Seg07
L_mid_hand01 Rope1_Seg09
L_mid_hand02 Rope1_Seg09
L_mid_hand03 Rope1_Seg09
null_rope02_connect R_mid_tent01
Rope2_Seg01 null_rope02_connect
Rope2_Seg02 Rope2_Seg01
Rope2_Seg03 Rope2_Seg02
Rope2_Seg04 Rope2_Seg03
Rope2_Seg05 Rope2_Seg04
Rope2_Seg06 Rope2_Seg05
Rope2_Seg07 Rope2_Seg06
Rope2_Seg09 Rope2_Seg07
R_mid_hand01 Rope2_Seg09
R_mid_hand02 Rope2_Seg09
R_mid_hand03 Rope2_Seg09
spine02 spine01
spine03 spine02
pelvis spine03
null_rope03_connect pelvis
null_rope04_connect pelvis
Rope3_Seg01 null_rope03_connect
Rope3_Seg02 Rope3_Seg01
Rope3_Seg03 Rope3_Seg02
Rope3_Seg04 Rope3_Seg03
Rope3_Seg05 Rope3_Seg04
Rope3_Seg06 Rope3_Seg05
Rope3_Seg07 Rope3_Seg06
Rope3_Seg08 Rope3_Seg07
Rope3_Seg09 Rope3_Seg08
R_rear_hand01 Rope3_Seg09
R_rear_hand02 Rope3_Seg09
R_rear_hand03 Rope3_Seg09
Rope4_Seg01 null_rope04_connect
Rope4_Seg02 Rope4_Seg01
Rope4_Seg03 Rope4_Seg02
Rope4_Seg04 Rope4_Seg03
Rope4_Seg05 Rope4_Seg04
Rope4_Seg06 Rope4_Seg05
Rope4_Seg07 Rope4_Seg06
Rope4_Seg08 Rope4_Seg07
Rope4_Seg09 Rope4_Seg08
L_rear_hand01 Rope4_Seg09
L_rear_hand02 Rope4_Seg09
L_rear_hand03 Rope4_Seg09
[BasePosition]
#SegmentName Tx, Ty, Tz, Rx, Ry, Rz, BoneLength
MASTER 0.000000 0.000000 0.000000 -90.000000 0.000000 0.000000 10.000000 
root 0.000000 0.000000 0.000000 0.000000 0.000000 0.000000 10.000000 
chest 0.000000 0.000000 0.000000 0.000000 0.000000 0.000000 10.000000 
L_mid_tent01 0.000000 0.000000 0.000000 0.000000 0.000000 0.000000 10.000000 
R_mid_tent01 0.000000 0.000000 0.000000 0.000000 0.000000 0.000000 10.000000 
spine01 0.000000 0.000000 0.000000 0.000000 0.000000 0.000000 10.000000 
Bip01_Neck 0.000000 0.000000 0.000000 0.000000 0.000000 0.000000 10.000000 
L_humerus 0.000000 0.000000 0.000000 0.000000 0.000000 0.000000 10.000000 
R_humerus 0.000000 0.000000 0.000000 0.000000 0.000000 0.000000 10.000000 
weapon_bone 0.000000 0.000000 0.000000 0.000000 0.000000 0.000000 10.000000 
Bip01_Head 0.000000 0.000000 0.000000 0.000000 0.000000 0.000000 10.000000 
eye_left_bone 0.000000 0.000000 0.000000 0.000000 0.000000 0.000000 10.000000 
eye_right_bone 0.000000 0.000000 0.000000 0.000000 0.000000 0.000000 10.000000 
L_forearm 0.000000 0.000000 0.000000 0.000000 0.000000 0.000000 10.000000 
L_front_hand 0.000000 0.000000 0.000000 0.000000 0.000000 0.000000 10.000000 
L_weapon_bone 0.000000 0.000000 0.000000 0.000000 0.000000 0.000000 10.000000 
L_front_hand01_01 0.000000 0.000000 0.000000 0.000000 0.000000 0.000000 10.000000 
L_front_hand02_01 0.000000 0.000000 0.000000 0.000000 0.000000 0.000000 10.000000 
L_front_hand03_01 0.000000 0.000000 0.000000 0.000000 0.000000 0.000000 10.000000 
L_front_hand01_02 0.000000 0.000000 0.000000 0.000000 0.000000 0.000000 10.000000 
L_front_hand02_02 0.000000 0.000000 0.000000 0.000000 0.000000 0.000000 10.000000 
L_front_hand03_02 0.000000 0.000000 0.000000 0.000000 0.000000 0.000000 10.000000 
R_forearm 0.000000 0.000000 0.000000 0.000000 0.000000 0.000000 10.000000 
R_front_hand 0.000000 0.000000 0.000000 0.000000 0.000000 0.000000 10.000000 
R_weapon_bone 0.000000 0.000000 0.000000 0.000000 0.000000 0.000000 10.000000 
R_front_hand01_01 0.000000 0.000000 0.000000 0.000000 0.000000 0.000000 10.000000 
R_front_hand02_01 0.000000 0.000000 0.000000 0.000000 0.000000 0.000000 10.000000 
R_front_hand03_01 0.000000 0.000000 0.000000 0.000000 0.000000 0.000000 10.000000 
R_front_hand01_02 0.000000 0.000000 0.000000 0.000000 0.000000 0.000000 10.000000 
R_front_hand02_02 0.000000 0.000000 0.000000 0.000000 0.000000 0.000000 10.000000 
R_front_hand03_02 0.000000 0.000000 0.000000 0.000000 0.000000 0.000000 10.000000 
null_rope01_connect 0.000000 0.000000 0.000000 0.000000 0.000000 0.000000 10.000000 
Rope1_Seg01 0.000000 0.000000 0.000000 0.000000 0.000000 0.000000 10.000000 
Rope1_Seg02 0.000000 0.000000 0.000000 0.000000 0.000000 0.000000 10.000000 
Rope1_Seg03 0.000000 0.000000 0.000000 0.000000 0.000000 0.000000 10.000000 
Rope1_Seg04 0.000000 0.000000 0.000000 0.000000 0.000000 0.000000 10.000000 
Rope1_Seg05 0.000000 0.000000 0.000000 0.000000 0.000000 0.000000 10.000000 
Rope1_Seg06 0.000000 0.000000 0.000000 0.000000 0.000000 0.000000 10.000000 
Rope1_Seg07 0.000000 0.000000 0.000000 0.000000 0.000000 0.000000 10.000000 
Rope1_Seg09 0.000000 0.000000 0.000000 0.000000 0.000000 0.000000 10.000000 
L_mid_hand01 0.000000 0.000000 0.000000 0.000000 0.000000 0.000000 10.000000 
L_mid_hand02 0.000000 0.000000 0.000000 0.000000 0.000000 0.000000 10.000000 
L_mid_hand03 0.000000 0.000000 0.000000 0.000000 0.000000 0.000000 10.000000 
null_rope02_connect 0.000000 0.000000 0.000000 0.000000 0.000000 0.000000 10.000000 
Rope2_Seg01 0.000000 0.000000 0.000000 0.000000 0.000000 0.000000 10.000000 
Rope2_Seg02 0.000000 0.000000 0.000000 0.000000 0.000000 0.000000 10.000000 
Rope2_Seg03 0.000000 0.000000 0.000000 0.000000 0.000000 0.000000 10.000000 
Rope2_Seg04 0.000000 0.000000 0.000000 0.000000 0.000000 0.000000 10.000000 
Rope2_Seg05 0.000000 0.000000 0.000000 0.000000 0.000000 0.000000 10.000000 
Rope2_Seg06 0.000000 0.000000 0.000000 0.000000 0.000000 0.000000 10.000000 
Rope2_Seg07 0.000000 0.000000 0.000000 0.000000 0.000000 0.000000 10.000000 
Rope2_Seg09 0.000000 0.000000 0.000000 0.000000 0.000000 0.000000 10.000000 
R_mid_hand01 0.000000 0.000000 0.000000 0.000000 0.000000 0.000000 10.000000 
R_mid_hand02 0.000000 0.000000 0.000000 0.000000 0.000000 0.000000 10.000000 
R_mid_hand03 0.000000 0.000000 0.000000 0.000000 0.000000 0.000000 10.000000 
spine02 0.000000 0.000000 0.000000 0.000000 0.000000 0.000000 10.000000 
spine03 0.000000 0.000000 0.000000 0.000000 0.000000 0.000000 10.000000 
pelvis 0.000000 0.000000 0.000000 0.000000 0.000000 0.000000 10.000000 
null_rope03_connect 0.000000 0.000000 0.000000 0.000000 0.000000 0.000000 10.000000 
null_rope04_connect 0.000000 0.000000 0.000000 0.000000 0.000000 0.000000 10.000000 
Rope3_Seg01 0.000000 0.000000 0.000000 0.000000 0.000000 0.000000 10.000000 
Rope3_Seg02 0.000000 0.000000 0.000000 0.000000 0.000000 0.000000 10.000000 
Rope3_Seg03 0.000000 0.000000 0.000000 0.000000 0.000000 0.000000 10.000000 
Rope3_Seg04 0.000000 0.000000 0.000000 0.000000 0.000000 0.000000 10.000000 
Rope3_Seg05 0.000000 0.000000 0.000000 0.000000 0.000000 0.000000 10.000000 
Rope3_Seg06 0.000000 0.000000 0.000000 0.000000 0.000000 0.000000 10.000000 
Rope3_Seg07 0.000000 0.000000 0.000000 0.000000 0.000000 0.000000 10.000000 
Rope3_Seg08 0.000000 0.000000 0.000000 0.000000 0.000000 0.000000 10.000000 
Rope3_Seg09 0.000000 0.000000 0.000000 0.000000 0.000000 0.000000 10.000000 
R_rear_hand01 0.000000 0.000000 0.000000 0.000000 0.000000 0.000000 10.000000 
R_rear_hand02 0.000000 0.000000 0.000000 0.000000 0.000000 0.000000 10.000000 
R_rear_hand03 0.000000 0.000000 0.000000 0.000000 0.000000 0.000000 10.000000 
Rope4_Seg01 0.000000 0.000000 0.000000 0.000000 0.000000 0.000000 10.000000 
Rope4_Seg02 0.000000 0.000000 0.000000 0.000000 0.000000 0.000000 10.000000 
Rope4_Seg03 0.000000 0.000000 0.000000 0.000000 0.000000 0.000000 10.000000 
Rope4_Seg04 0.000000 0.000000 0.000000 0.000000 0.000000 0.000000 10.000000 
Rope4_Seg05 0.000000 0.000000 0.000000 0.000000 0.000000 0.000000 10.000000 
Rope4_Seg06 0.000000 0.000000 0.000000 0.000000 0.000000 0.000000 10.000000 
Rope4_Seg07 0.000000 0.000000 0.000000 0.000000 0.000000 0.000000 10.000000 
Rope4_Seg08 0.000000 0.000000 0.000000 0.000000 0.000000 0.000000 10.000000 
Rope4_Seg09 0.000000 0.000000 0.000000 0.000000 0.000000 0.000000 10.000000 
L_rear_hand01 0.000000 0.000000 0.000000 0.000000 0.000000 0.000000 10.000000 
L_rear_hand02 0.000000 0.000000 0.000000 0.000000 0.000000 0.000000 10.000000 
L_rear_hand03 0.000000 0.000000 0.000000 0.000000 0.000000 0.000000 10.000000 
#Beginning of Data. Separated by tabs
#Fr	Tx	Ty	Tz	Rx	Ry	Rz	SF
[MASTER]
95 47.689644 4734.572754 78.920738 0.001660 0.001660 0.001660 4735.470703
96 28.711847 4780.560547 58.432869 0.001660 0.001660 0.001660 4781.003418
[root]
95 13.490314 -72.336937 1192.393677 -95.121895 -26.480988 -88.596893 1194.661987
96 5.035983 -50.526230 1261.123169 -94.605682 -23.480289 -88.740578 1262.145020
[chest]
95 -84.512650 -34.090519 0.000000 -8.467156 -3.559809 177.706558 91.129311
96 -84.512650 -34.090519 0.000000 -7.760415 -3.049813 176.450836 91.129311
[L_mid_tent01]
95 27.298901 22.179249 -249.918701 -9.206161 31.188181 53.958130 252.381668
96 27.298899 22.179251 -249.918701 -7.115066 33.189590 58.058243 252.381668
[R_mid_tent01]
95 23.228794 24.509907 226.238495 172.206940 -22.839172 45.927605 228.744751
96 23.228794 24.509907 226.238495 172.905685 -25.797174 50.226433 228.744751
[spine01]
95 -0.361383 -0.195265 0.000000 0.001836 0.001463 12.908361 0.410763
96 -0.361383 -0.195265 0.000000 0.001857 0.001437 14.535944 0.410763
[Bip01_Neck]
95 165.484543 71.581718 0.000119 176.643677 -1.657967 43.431911 180.302734
96 165.484543 71.581718 0.000119 176.643677 -1.657967 43.431911 180.302734
[L_humerus]
95 -13.983130 -135.272980 -120.471481 171.930023 66.717003 -97.317131 181.680161
96 -13.983130 -135.272980 -120.471481 171.511047 74.316093 -97.840897 181.680161
[R_humerus]
95 -13.983309 -135.273102 125.287651 169.852646 -62.906506 -73.569016 184.909012
96 -13.983309 -135.273102 125.287651 163.482819 -70.103554 -67.310158 184.909012
[weapon_bone]
95 235.964890 -300.705902 0.000000 0.000000 -89.951546 -128.212341 382.234833
96 235.964890 -300.705902 0.000000 0.000000 -89.951546 -128.212341 382.234833
[Bip01_Head]
95 212.043579 183.582184 16.001499 -1.016188 3.293554 -43.890251 280.928711
96 212.464569 184.222672 14.733087 -0.114783 3.213915 -43.893570 281.595886
[eye_left_bone]
95 -24.626970 125.451866 -64.772606 0.000000 -90.000000 -99.840431 143.318359
96 -24.626970 125.451866 -64.772606 0.000000 -90.000000 -99.840431 143.318359
[eye_right_bone]
95 -24.626970 125.451866 64.327362 0.000000 -89.965736 80.156380 143.117676
96 -24.626970 125.451866 64.327362 0.000000 -89.965736 80.156380 143.117676
[L_forearm]
95 322.776093 0.000000 -0.000119 0.000354 -0.002320 -107.331291 322.776093
96 322.776093 0.000000 -0.000119 0.000361 -0.002319 -107.697166 322.776093
[L_front_hand]
95 241.149185 -0.042021 -3.300071 60.145355 -2.204067 -5.138964 241.171753
96 241.149185 -0.042021 -3.300071 60.145355 -2.204067 -5.138964 241.171753
[L_weapon_bone]
95 156.183838 0.000000 0.000000 0.000014 0.000007 0.000001 156.183838
96 156.183838 0.000000 0.000000 0.000014 0.000007 0.000001 156.183838
[L_front_hand01_01]
95 86.095154 20.947098 -0.655860 -0.366594 -0.477154 75.385574 88.609184
96 86.095154 20.947098 -0.655860 -0.366594 -0.477154 75.385574 88.609184
[L_front_hand02_01]
95 86.935165 -11.437475 24.513514 154.399796 -59.883835 -61.369587 91.046425
96 86.935165 -11.437475 24.513514 154.399796 -59.883835 -61.369587 91.046425
[L_front_hand03_01]
95 86.637497 -14.123976 -20.424902 -153.913849 58.118122 -62.702866 90.126129
96 86.637497 -14.123976 -20.424902 -153.913849 58.118122 -62.702866 90.126129
[L_front_hand01_02]
95 71.020905 -0.000179 0.000030 0.000334 -0.002323 -106.379684 71.020905
96 71.020905 -0.000179 0.000030 0.000334 -0.002323 -106.379684 71.020905
[L_front_hand02_02]
95 71.020927 -0.000119 0.000060 0.000334 -0.002323 -106.379684 71.020927
96 71.020927 -0.000119 0.000060 0.000334 -0.002323 -106.379684 71.020927
[L_front_hand03_02]
95 71.020905 -0.000060 0.000060 0.000334 -0.002323 -106.379684 71.020905
96 71.020905 -0.000060 0.000060 0.000334 -0.002323 -106.379684 71.020905
[R_forearm]
95 322.776428 -0.000060 0.000030 0.202074 0.065247 -108.113724 322.776428
96 322.776428 -0.000060 0.000030 0.202080 0.065229 -108.103539 322.776428
[R_front_hand]
95 238.847015 -0.006795 2.210259 -2.635298 -10.645461 -26.312506 238.857239
96 238.847015 -0.006795 2.210259 -2.635298 -10.645461 -26.312506 238.857239
[R_weapon_bone]
95 155.664093 0.002503 -0.000030 0.003487 0.001180 -90.988930 155.664078
96 155.664093 0.002503 -0.000030 0.003487 0.001180 -90.988930 155.664078
[R_front_hand01_01]
95 87.624611 14.231146 22.918642 -154.633499 -59.950619 61.746044 91.683487
96 87.624611 14.231146 22.918642 -154.633499 -59.950619 61.746044 91.683487
[R_front_hand02_01]
95 89.356956 14.367283 -19.491137 154.602661 58.302849 63.744389 92.579636
96 89.356956 14.367283 -19.491137 154.602661 58.302849 63.744389 92.579636
[R_front_hand03_01]
95 87.286232 -22.307278 -0.143439 0.162155 -0.423168 -75.767921 90.091743
96 87.286232 -22.307278 -0.143439 0.162155 -0.423168 -75.767921 90.091743
[R_front_hand01_02]
95 71.020905 0.000060 0.000119 0.002323 -0.000334 106.381706 71.020905
96 71.020905 0.000060 0.000119 0.002323 -0.000334 106.381714 71.020905
[R_front_hand02_02]
95 71.020844 -0.000030 -0.000119 0.002323 -0.000334 106.381706 71.020836
96 71.020844 -0.000030 -0.000119 0.002323 -0.000334 106.381714 71.020836
[R_front_hand03_02]
95 71.020905 0.000000 0.000030 0.002323 -0.000334 106.381706 71.020905
96 71.020905 0.000000 0.000030 0.002323 -0.000334 106.381714 71.020905
[null_rope01_connect]
95 328.732483 0.000000 -0.000238 -138.467545 -53.665577 -160.759735 328.732483
96 328.732483 0.000000 -0.000238 -140.637207 -52.573223 -165.264206 328.732483
[Rope1_Seg01]
95 -0.000036 -0.000289 0.000009 14.391472 -3.852984 -135.208160 0.000292
96 -0.000036 -0.000292 0.000008 24.212944 -4.983393 -129.511887 0.000294
[Rope1_Seg02]
95 139.999863 -0.000179 0.000000 0.328392 1.702802 -1.635650 139.999863
96 139.999863 -0.000179 0.000000 0.893417 3.056006 -2.745363 139.999863
[Rope1_Seg03]
95 139.999924 0.000060 -0.000060 -0.354973 1.898671 -2.403385 139.999924
96 139.999924 0.000060 -0.000060 -0.126446 3.239049 -3.653831 139.999924
[Rope1_Seg04]
95 139.999924 -0.000060 -0.000119 -2.035754 2.577732 -4.933940 139.999924
96 139.999924 -0.000060 -0.000119 -4.448878 2.295567 -7.334649 139.999924
[Rope1_Seg05]
95 139.999832 0.000119 -0.000060 6.573353 1.029931 5.313985 139.999832
96 139.999832 0.000119 -0.000060 11.067278 9.861897 3.228930 139.999832
[Rope1_Seg06]
95 139.999954 0.000119 -0.000060 6.138620 0.496300 4.819157 139.999954
96 139.999954 0.000119 -0.000060 6.520498 5.612514 2.970438 139.999954
[Rope1_Seg07]
95 139.999985 0.000060 0.000000 2.561275 0.541052 1.537517 139.999985
96 139.999985 0.000060 0.000000 1.892890 2.286573 0.321513 139.999985
[Rope1_Seg09]
95 121.602913 0.000119 -0.000089 -89.793175 -1.359789 0.847147 121.602913
96 121.602913 0.000119 -0.000089 -89.793175 -1.359789 0.847147 121.602913
[L_mid_hand01]
95 103.859421 1.038730 8.195221 130.544373 -67.584534 -38.866943 104.187431
96 103.859421 1.038730 8.195221 130.544373 -67.584534 -38.866943 104.187431
[L_mid_hand02]
95 105.572853 -4.139662 -10.864139 -168.923172 43.409309 -73.498886 106.211075
96 105.572853 -4.139662 -10.864139 -168.923172 43.409309 -73.498886 106.211075
[L_mid_hand03]
95 104.641464 17.579376 -3.913581 -6.012627 17.808174 74.893669 106.179977
96 104.641464 17.579376 -3.913581 -6.012627 17.808174 74.893669 106.179977
[null_rope02_connect]
95 328.732849 0.000179 -0.000119 -79.425392 66.398056 29.365913 328.732849
96 328.732849 0.000179 -0.000119 -92.317551 64.364769 23.711653 328.732849
[Rope2_Seg01]
95 0.000003 0.000296 0.000000 -56.782063 -19.445393 -97.197968 0.000296
96 0.000003 0.000298 0.000000 -61.222462 -23.363575 -93.178917 0.000298
[Rope2_Seg02]
95 139.999741 -0.000060 -0.000119 2.147544 6.013154 0.594682 139.999756
96 139.999741 -0.000060 -0.000119 5.507809 6.704414 4.010149 139.999756
[Rope2_Seg03]
95 140.000107 0.000030 0.000000 -3.412425 -8.570944 -0.978266 140.000107
96 140.000107 0.000030 0.000000 0.800693 -3.619979 2.742473 140.000107
[Rope2_Seg04]
95 139.999802 0.000000 -0.000060 6.234673 17.543821 2.778963 139.999802
96 139.999802 0.000000 -0.000060 5.008430 12.491837 1.859943 139.999802
[Rope2_Seg05]
95 139.999985 -0.000060 0.000119 3.141661 27.261024 1.614014 139.999985
96 139.999985 -0.000060 0.000119 2.491052 25.579973 -1.882799 139.999985
[Rope2_Seg06]
95 139.999893 -0.000030 -0.000119 -0.286423 9.156099 0.058151 139.999893
96 139.999893 -0.000030 -0.000119 -0.012975 9.717030 -1.106250 139.999893
[Rope2_Seg07]
95 139.999893 0.000060 -0.000060 -0.362805 4.305575 0.047431 139.999893
96 139.999893 0.000060 -0.000060 -0.179706 4.527451 -0.455820 139.999893
[Rope2_Seg09]
95 121.338966 0.000089 -0.000060 33.793236 -1.359788 -0.847141 121.338966
96 121.338966 0.000089 -0.000060 33.793236 -1.359788 -0.847141 121.338966
[R_mid_hand01]
95 104.680779 11.144459 -10.335981 -16.212063 45.237247 70.462852 105.778534
96 104.680779 11.144459 -10.335981 -16.212063 45.237247 70.462852 105.778534
[R_mid_hand02]
95 104.070427 2.443552 8.231699 49.067368 -67.749771 39.286453 104.424065
96 104.070427 2.443552 8.231699 49.067368 -67.749771 39.286453 104.424065
[R_mid_hand03]
95 106.028137 -11.221827 -5.996406 -177.101105 15.551026 -76.585571 106.788818
96 106.028137 -11.221827 -5.996406 -177.101105 15.551026 -76.585571 106.788818
[spine02]
95 129.756927 0.001550 0.000119 0.364226 -4.044387 -12.986593 129.756927
96 129.756927 0.001550 0.000119 0.362584 -4.044553 -12.963290 129.756927
[spine03]
95 78.614189 0.081482 -4.899024 1.897833 3.830625 16.513081 78.766731
96 78.614189 0.081482 -4.899024 1.897610 3.830736 16.506409 78.766731
[pelvis]
95 169.435242 0.051022 0.000000 0.016062 -0.190556 -8.641862 169.435257
96 169.435242 0.051022 0.000000 0.006166 -0.191154 -5.663659 169.435257
[null_rope03_connect]
95 -1.257226 -2.466202 137.391083 -174.221420 -86.402397 -77.037674 137.418976
96 -1.257226 -2.466202 137.391083 -177.569122 -86.812241 -81.314629 137.418976
[null_rope04_connect]
95 -1.259640 -2.480268 -137.844437 -174.221420 -86.402397 -77.037674 137.872513
96 -1.259640 -2.480268 -137.844437 -177.569122 -86.812241 -81.314629 137.872513
[Rope3_Seg01]
95 -0.000037 -0.000289 0.000000 10.899755 15.125173 -100.016716 0.000292
96 -0.000037 -0.000292 0.000000 10.250245 18.791721 -99.338608 0.000294
[Rope3_Seg02]
95 139.999924 -0.000119 0.000060 1.514071 -3.712947 5.611293 139.999924
96 139.999924 -0.000119 0.000060 1.179396 -3.191169 5.190639 139.999924
[Rope3_Seg03]
95 139.999924 -0.000119 0.000119 1.317790 -4.240872 6.896213 139.999924
96 139.999924 -0.000119 0.000119 0.995845 -3.685344 6.371309 139.999924
[Rope3_Seg04]
95 139.999924 0.000119 0.000000 0.768644 -6.186760 11.002630 139.999924
96 139.999924 0.000119 0.000000 0.427232 -5.674061 10.751652 139.999924
[Rope3_Seg05]
95 139.999924 -0.000238 0.000060 0.130636 -0.126511 -0.354578 139.999924
96 139.999924 -0.000238 0.000060 0.140898 -0.274902 -0.315207 139.999924
[Rope3_Seg06]
95 139.999893 -0.000119 -0.000060 -0.709794 3.726328 -7.831083 139.999893
96 139.999893 -0.000119 -0.000060 -0.443601 3.382418 -7.845077 139.999893
[Rope3_Seg07]
95 139.999771 0.000060 -0.000119 -0.032478 1.440559 -3.107748 139.999771
96 139.999771 0.000060 -0.000119 0.077397 1.235689 -3.069324 139.999771
[Rope3_Seg08]
95 139.999985 -0.000060 0.000000 0.159633 0.889800 -1.950803 139.999985
96 139.999985 -0.000060 0.000000 0.231699 0.747455 -1.891158 139.999985
[Rope3_Seg09]
95 90.185997 -0.000179 -0.000060 89.793228 -1.359877 -0.847183 90.185997
96 90.185997 -0.000179 -0.000060 89.793228 -1.359877 -0.847183 90.185997
[R_rear_hand01]
95 103.366196 -6.073594 -10.757982 -177.714203 24.565960 -73.910950 104.101845
96 103.366196 -6.073594 -10.757982 -177.714203 24.565960 -73.910950 104.101845
[R_rear_hand02]
95 100.509819 12.039542 -7.992327 -12.874829 36.868488 72.167213 101.543350
96 100.509819 12.039542 -7.992327 -12.874829 36.868488 72.167213 101.543350
[R_rear_hand03]
95 101.539970 5.215704 5.435467 71.484581 -71.816628 21.513813 101.819031
96 101.539970 5.215704 5.435467 71.484581 -71.816628 21.513813 101.819031
[Rope4_Seg01]
95 0.000010 0.000038 -0.000114 -99.333488 5.036131 -113.538696 0.000121
96 0.000010 0.000038 -0.000114 -100.171738 8.378910 -114.914711 0.000121
[Rope4_Seg02]
95 139.999985 0.000060 0.000119 -0.334502 7.330492 6.212818 139.999985
96 139.999985 0.000060 0.000119 -0.569460 5.144034 5.265399 139.999985
[Rope4_Seg03]
95 139.999924 0.000000 -0.000238 -0.905123 7.943795 6.744860 139.999924
96 139.999924 0.000000 -0.000238 -1.061274 5.544645 5.790905 139.999924
[Rope4_Seg04]
95 139.999985 0.000000 0.000119 -1.268244 9.279344 6.884958 139.999985
96 139.999985 0.000000 0.000119 -1.575353 6.100847 6.047754 139.999985
[Rope4_Seg05]
95 139.999802 -0.000060 -0.000119 -4.590672 5.078088 7.205196 139.999802
96 139.999802 -0.000060 -0.000119 -3.488582 5.268725 7.166938 139.999802
[Rope4_Seg06]
95 139.999924 0.000000 0.000060 -3.780853 -0.053844 3.418325 139.999924
96 139.999924 0.000000 0.000060 -2.617669 1.534141 3.603560 139.999924
[Rope4_Seg07]
95 139.999802 0.000000 0.000000 -2.025473 0.343630 1.994062 139.999802
96 139.999802 0.000000 0.000000 -1.505461 0.928739 2.037321 139.999802
[Rope4_Seg08]
95 139.999924 0.000000 0.000119 -2.789936 0.293974 1.236263 139.999924
96 139.999924 0.000000 0.000119 -2.504971 0.568124 1.245780 139.999924
[Rope4_Seg09]
95 90.185791 0.000060 0.000060 -135.617828 2.228885 0.850567 90.185791
96 90.185791 0.000060 0.000060 -135.617828 2.228885 0.850567 90.185791
[L_rear_hand01]
95 101.696655 -8.392275 -7.654577 -12.874829 -36.868488 107.832764 102.329041
96 101.696655 -8.392275 -7.654577 -12.874829 -36.868488 107.832764 102.329041
[L_rear_hand02]
95 102.726799 -1.568258 5.773216 71.484581 71.816628 158.486160 102.900848
96 102.726799 -1.568258 5.773216 71.484581 71.816628 158.486160 102.900848
[L_rear_hand03]
95 104.552910 9.721220 -10.420293 -177.714203 -24.565960 -106.089035 105.519653
96 104.552910 9.721220 -10.420293 -177.714203 -24.565960 -106.089035 105.519653
